<svg xmlns:dc="http://purl.org/dc/elements/1.1/" xmlns:cc="http://creativecommons.org/ns#"
	xmlns:rdf="http://www.w3.org/1999/02/22-rdf-syntax-ns#" xmlns:svg="http://www.w3.org/2000/svg"
	xmlns="http://www.w3.org/2000/svg" xmlns:sodipodi="http://sodipodi.sourceforge.net/DTD/sodipodi-0.dtd"
	xmlns:inkscape="http://www.inkscape.org/namespaces/inkscape" version="1.1" x="0px" y="0px" viewBox="0 0 100 125">
	<g transform="translate(0,-952.36218)">
		<path
			d="m 50.015631,958.36215 c 24.29732,0 43.984368,19.7355 43.984368,44.01555 0,24.2802 -19.687048,43.9845 -43.984368,43.9845 -24.297329,0 -44.0156295,-19.7043 -44.0156295,-43.9845 0,-24.28005 19.7182995,-44.01555 44.0156295,-44.01555 z m -3.595029,2.1866 c 2.16695,1.4841 4.19068,3.2031 6.06466,5.1232 2.64476,-0.3358 5.46298,-0.2158 8.31545,0.3437 0.0779,-1.3943 0.13494,-2.7962 0.187569,-4.186 -4.90406,-1.5776 -9.72324,-1.681 -14.567679,-1.2809 z m -3.03232,0.3437 c -5.39505,1.1515 -9.11263,3.3134 -12.285621,5.6855 4.28591,0.3425 8.428791,1.1395 12.3794,2.3429 1.91469,-1.2688 4.154511,-2.2078 6.596091,-2.7803 -2.058681,-1.9941 -4.334291,-3.8377 -6.68987,-5.2481 z m 19.56945,1.5307 c -0.0535,1.3416 -0.11111,2.6856 -0.18757,4.0298 2.43442,0.6658 4.6672,1.6431 6.65861,2.8427 1.0764,-0.7712 2.16355,-1.5186 3.28242,-2.2492 -3.00851,-1.9348 -6.28343,-3.5003 -9.75346,-4.6233 z m -8.90942,4.936 c 2.22857,2.5253 4.22655,5.3545 6.00213,8.372 0.26318,-2.6493 0.457229,-5.2963 0.62523,-7.9347 -2.36168,-0.5216 -4.36199,-0.5904 -6.627361,-0.4373 z m -2.4071,0.3434 c -2.04807,0.4 -3.95233,1.0878 -5.627,2.0306 3.99168,1.4139 7.75951,3.2666 11.28526,5.4043 -1.70679,-2.6932 -3.57927,-5.2094 -5.65826,-7.4349 z m 22.85186,0.5623 c -1.11723,0.715 -2.20727,1.4607 -3.28241,2.218 2.60262,1.8971 4.63651,4.1935 6.00213,6.7163 3.19318,0.5874 5.81543,1.3681 8.252929,2.6866 -2.887969,-4.5405 -6.609859,-8.4882 -10.97265,-11.6209 z m -11.84795,0.031 c -0.14629,2.2571 -0.31702,4.517 -0.53144,6.7789 1.83355,-1.602 3.74921,-3.147 5.72078,-4.6234 -1.5739,-0.9029 -3.31554,-1.6105 -5.18934,-2.1555 z m -36.70054,0.063 c -0.199,0 -0.39442,0.027 -0.59396,0.031 -7.12551,5.1674 -12.5515,12.5025 -15.31794,21.0551 2.36375,-2.9934 5.2383,-5.4335 8.47176,-7.4037 1.49071,-5.8523 4.25838,-10.3023 7.44014,-13.6823 z m 2.8135,0.062 c -3.772,3.3673 -6.5337,7.553 -7.8778,12.2457 5.27627,-2.6339 11.45842,-4.1055 16.78722,-4.6546 0.78349,-2.1459 2.12428,-4.0062 3.84511,-5.5605 -4.07709,-1.1321 -8.33471,-1.849 -12.75453,-2.0306 z m 15.09911,2.7491 c -1.58869,1.2823 -2.83269,2.8501 -3.65755,4.6546 5.79072,-0.1803 10.96991,0.1317 16.13073,1.0626 -3.86371,-2.3478 -8.0403,-4.2796 -12.47318,-5.7167 z m 25.79041,0.4374 c -2.29068,1.6872 -4.48926,3.4485 -6.59609,5.3105 3.87173,-0.5111 7.723479,-0.5907 11.59787,-0.1249 -1.23004,-1.9332 -2.9301,-3.7109 -5.00178,-5.1856 z m -30.16696,6.2478 c -0.516221,2.0615 -0.436981,4.1646 0.12504,6.1852 4.7603,-2.5512 10.26603,-4.154 15.067849,-5.4043 -5.06687,-0.7289 -10.73933,-1.069 -15.19289,-0.7809 z m -2.37584,0.2499 c -6.11653,0.7816 -11.81764,2.3344 -16.81848,5.1544 -0.74444,4.514 -0.11218,9.1037 1.65684,13.4327 4.57248,-4.6215 9.95592,-8.5244 15.724339,-11.6522 -0.768659,-2.2573 -0.9975,-4.6064 -0.562699,-6.9349 z m 27.00959,0.6562 c 4.54904,1.3483 8.87533,3.0936 12.78579,5.2481 -0.006,-1.6966 -0.40885,-3.3862 -1.09414,-4.9982 -4.05142,-0.5911 -7.91446,-0.6066 -11.69165,-0.2499 z m 14.16128,0.7185 c 0.67419,1.8888 0.96942,3.8508 0.81278,5.8104 4.37553,2.6859 8.10777,5.8827 10.87887,9.4966 0.22647,-4.2583 -0.68756,-7.7867 -2.43837,-11.2772 -3.15074,-2.156 -6.24363,-3.2815 -9.25328,-4.0298 z m -21.28881,0.4061 c -6.21405,1.4873 -11.50178,3.372 -16.72469,6.029 1.12352,2.5519 3.04649,4.8942 5.56447,6.8102 3.40673,-4.4896 7.12918,-8.81 11.16022,-12.8392 z m 2.56341,0.406 c -4.44504,4.4171 -8.75752,9.2984 -12.03553,13.589 3.14621,1.8093 6.00664,2.8736 9.28455,3.3426 1.15913,-5.6463 2.07021,-11.2858 2.75098,-16.9316 z m 6.47104,1.1559 c 3.43443,3.091 6.18437,6.0196 8.72185,9.3404 0.99062,-1.5533 1.60349,-2.9436 1.90693,-4.5608 -3.25075,-1.8705 -6.83992,-3.4801 -10.62878,-4.7796 z m -2.87602,0.2186 c 2.08088,4.5327 3.7396,9.3631 4.93926,14.2763 2.10243,-0.8651 3.92866,-2.0482 5.37691,-3.5613 -3.00489,-3.9787 -6.87261,-7.8974 -10.31617,-10.715 z m -1.8444,0.8435 c -0.64261,4.9717 -1.4557,9.936 -2.46963,14.901 2.58703,0.1439 5.08156,-0.1506 7.34636,-0.8122 -1.18373,-4.8647 -2.81849,-9.6261 -4.87673,-14.0888 z m -43.20284,2.1555 c -3.85625,2.5975 -7.13109,5.9344 -9.4096005,10.059 -0.7054,5.72565 0.15738,10.74325 3.0948505,15.99435 2.11219,-4.5631 5.06316,-8.5815 8.65933,-12.46435 -1.92472,-4.3385 -2.78717,-8.9589 -2.34458,-13.589 z m 20.31971,2.2492 c -5.74579,3.1501 -11.10014,7.0997 -15.56803,11.7458 2.35214,4.71615 6.08192,9.05655 10.84761,12.52695 3.36042,-5.772 6.98891,-11.48809 11.03516,-16.96275 -2.79293,-2.0493 -4.97328,-4.5586 -6.31474,-7.31 z m 40.29556,0.5936 c -0.60164,1.8858 -1.56688,3.7661 -2.62593,5.092 3.72916,5.2686 6.45957,10.90275 7.97158,16.58785 2.93705,-3.7395 4.74943,-7.2885 5.59574,-11.37105 -2.53,-3.8899 -6.34513,-7.3665 -10.94139,-10.3088 z m -4.03268,6.6226 c -1.70073,1.5867 -3.81143,2.845 -6.1897,3.7175 1.43392,6.49435 2.132,13.72855 2.00071,19.80545 4.57458,-1.4278 8.63338,-3.696 11.84796,-6.6851 -1.32747,-5.7356 -3.96251,-11.48735 -7.65897,-16.83785 z m -28.26004,1.2184 c -4.04522,5.46485 -7.69508,11.20335 -11.06643,16.99405 5.4155,3.165 10.21902,5.2279 15.7556,6.2789 2.14205,-6.5129 3.93235,-13.09 5.34565,-19.68055 -3.53674,-0.5132 -7.23393,-1.8996 -10.03482,-3.5924 z m 20.19468,3.0926 c -2.53905,0.6793 -5.28986,0.9273 -8.15915,0.7184 -1.41437,6.62225 -3.18995,13.22075 -5.34565,19.77435 5.37577,0.7551 10.60141,0.4646 15.3492,-0.7184 0.0329,-7.2297 -0.45039,-13.379 -1.8444,-19.77435 z m -45.23482,1.78065 c -3.42426,3.8488 -6.2656,8.1292 -8.25293,12.7767 2.9789,4.6739 7.22139,9.1197 12.50444,12.9329 2.22062,-4.3063 4.5817,-8.6502 7.06501,-12.9953 -4.88157,-3.5129 -8.76799,-7.9003 -11.31652,-12.7143 z m 69.743517,0.1873 c -1.187737,4.2957 -3.455297,8.0519 -6.502307,11.1524 1.0089,4.9244 1.07554,9.8302 0.0312,14.5262 4.5982,-6.691 7.332797,-14.7639 7.377617,-23.4918 -0.27412,-0.7823 -0.61895,-1.5459 -0.90652,-2.1868 z m -82.7168775,7.8411 c 0.3382,2.4161 0.89437,4.7634 1.6255805,7.0287 0.24337,-0.7641 0.49719,-1.5146 0.78153,-2.2492 -0.9719305,-1.5951 -1.7247405,-3.184 -2.4071105,-4.7795 z m 74.4014305,4.9671 c -3.45476,2.954 -7.691,5.1909 -12.41066,6.56 -0.35304,5.7034 -1.35557,11.4114 -3.43872,16.3692 5.6691,-1.0059 10.65177,-3.0928 14.50515,-6.154 1.97623,-5.2081 2.34455,-10.9525 1.34423,-16.7752 z m -48.45471,0.8434 c -2.49022,4.3564 -4.83127,8.7255 -7.06501,13.0578 5.40997,3.5441 11.77538,6.3574 17.53748,7.9034 2.11337,-4.789 3.99579,-9.6199 5.65826,-14.4948 -5.69614,-1.1538 -11.73256,-3.6416 -16.13073,-6.4664 z m -22.1016,1.2182 c -0.38889,1.0833 -0.73652,2.192 -1.03162,3.3114 2.39987,5.7231 6.06353,10.7999 10.59752,14.901 0.95045,-1.8955 1.92043,-3.8168 2.90728,-5.748 -5.14449,-3.6633 -9.35582,-7.9208 -12.47318,-12.4644 z m 56.11368,5.0295 c -4.96483,1.1503 -10.38245,1.3872 -15.9119,0.5623 -1.67181,4.8983 -3.55698,9.7922 -5.68952,14.6199 6.52614,1.3593 11.82958,1.7243 17.81882,1.0308 2.40205,-5.4159 3.41194,-10.7693 3.7826,-16.213 z m -41.98366,8.5907 c -1.02389,2.0037 -2.04588,3.9982 -3.03233,5.9667 4.99901,4.0927 11.00149,7.0212 17.53748,8.4658 1.08432,-2.1427 2.10887,-4.3005 3.09485,-6.4665 -6.65412,-1.9822 -12.24617,-4.44 -17.6,-7.966 z m 48.98614,6.9351 c -2.92189,1.1942 -6.10731,2.0396 -9.47211,2.5303 -0.71734,1.3603 -1.50772,2.6191 -2.4071,3.7487 4.31637,-1.4596 8.32167,-3.5852 11.87921,-6.279 z m -29.44795,1.4995 c -0.97717,2.1452 -1.98915,4.2768 -3.06359,6.4039 2.32545,0.3979 4.71916,0.5936 7.15879,0.5936 3.37155,0 6.64341,-0.4082 9.78473,-1.1559 1.37066,-1.2226 2.59766,-2.7423 3.65754,-4.5297 -5.58018,0.512 -11.54735,0.096 -17.53747,-1.3119 z"
			style="text-indent:0;text-transform:none;direction:ltr;block-progression:tb;baseline-shift:baseline;color:#000000;enable-background:accumulate;"
			fill="#000000" fill-opacity="1" stroke="none" marker="none" visibility="visible" display="inline"
			overflow="visible" />
	</g>
</svg>