<svg xmlns="http://www.w3.org/2000/svg" xmlns:xlink="http://www.w3.org/1999/xlink" version="1.1" x="0px" y="0px"
	viewBox="0 0 100 125" style="enable-background:new 0 0 100 100;" xml:space="preserve">
	<style type="text/css">
		.st0 {
			display: none;
		}

		.st1 {
			display: inline;
		}
	</style>
	<g class="st0">
		<polygon class="st1"
			points="77.5,27.5 77.5,22.5 72.5,22.5 72.5,17.5 67.5,17.5 62.5,17.5 62.5,22.5 57.5,22.5    57.5,27.5 52.5,27.5 52.5,32.5 47.5,32.5 47.5,27.5 42.5,27.5 42.5,22.5 37.5,22.5 37.5,17.5 32.5,17.5 27.5,17.5 27.5,22.5    22.5,22.5 22.5,27.5 17.5,27.5 17.5,32.5 17.5,37.5 17.5,42.5 17.5,47.5 22.5,47.5 22.5,52.5 22.5,57.5 27.5,57.5 27.5,62.5    32.5,62.5 32.5,67.5 37.5,67.5 37.5,72.5 42.5,72.5 42.5,77.5 47.5,77.5 47.5,82.5 52.5,82.5 52.5,77.5 57.5,77.5 57.5,72.5    62.5,72.5 62.5,67.5 67.5,67.5 67.5,62.5 72.5,62.5 72.5,57.5 77.5,57.5 77.5,52.5 77.5,47.5 82.5,47.5 82.5,42.5 82.5,37.5    82.5,32.5 82.5,27.5  " />
	</g>
	<g class="st0">
		<polygon class="st1"
			points="77.5,37.5 72.5,37.5 67.5,37.5 62.5,37.5 62.5,32.5 57.5,32.5 57.5,27.5 57.5,22.5    52.5,22.5 52.5,17.5 47.5,17.5 47.5,22.5 42.5,22.5 42.5,27.5 42.5,32.5 37.5,32.5 37.5,37.5 32.5,37.5 27.5,37.5 22.5,37.5    17.5,37.5 17.5,42.5 22.5,42.5 22.5,47.5 27.5,47.5 27.5,52.5 32.5,52.5 32.5,57.5 32.5,62.5 27.5,62.5 27.5,67.5 27.5,72.5    22.5,72.5 22.5,77.5 22.5,82.5 27.5,82.5 32.5,82.5 32.5,77.5 37.5,77.5 42.5,77.5 42.5,72.5 47.5,72.5 47.5,67.5 52.5,67.5    52.5,72.5 57.5,72.5 57.5,77.5 62.5,77.5 67.5,77.5 67.5,82.5 72.5,82.5 77.5,82.5 77.5,77.5 77.5,72.5 72.5,72.5 72.5,67.5    72.5,62.5 67.5,62.5 67.5,57.5 67.5,52.5 72.5,52.5 72.5,47.5 77.5,47.5 77.5,42.5 82.5,42.5 82.5,37.5  " />
	</g>
	<g class="st0">
		<polygon class="st1"
			points="77.5,17.5 77.5,22.5 72.5,22.5 72.5,27.5 72.5,32.5 67.5,32.5 67.5,37.5 62.5,37.5    62.5,32.5 57.5,32.5 57.5,27.5 57.5,22.5 52.5,22.5 52.5,17.5 47.5,17.5 47.5,22.5 42.5,22.5 42.5,27.5 42.5,32.5 37.5,32.5    37.5,37.5 32.5,37.5 32.5,32.5 27.5,32.5 27.5,27.5 27.5,22.5 22.5,22.5 22.5,17.5 17.5,17.5 17.5,22.5 17.5,27.5 17.5,32.5    17.5,37.5 17.5,42.5 17.5,47.5 17.5,52.5 17.5,57.5 17.5,62.5 17.5,67.5 22.5,67.5 22.5,72.5 27.5,72.5 27.5,77.5 32.5,77.5    37.5,77.5 37.5,82.5 42.5,82.5 47.5,82.5 52.5,82.5 57.5,82.5 62.5,82.5 62.5,77.5 67.5,77.5 72.5,77.5 72.5,72.5 77.5,72.5    77.5,67.5 82.5,67.5 82.5,62.5 82.5,57.5 82.5,52.5 82.5,47.5 82.5,42.5 82.5,37.5 82.5,32.5 82.5,27.5 82.5,22.5 82.5,17.5  " />
	</g>
	<g class="st0">
		<path class="st1"
			d="M77.5,37.5v-5v-5h-5v-5h-5h-5v-5h-5h-5h-5h-5h-5v5h-5h-5v5h-5v5v5h-5v5v5v5v5v5h5v5v5h5v5h5h5   v5h5h5h5h5h5v-5h5h5v-5h5v-5v-5h5v-5v-5v-5v-5v-5H77.5z M32.5,42.5v-5h5h5v5v5h-5h-5V42.5z M57.5,47.5v-5v-5h5h5v5v5h-5H57.5z    M67.5,62.5v5h-5v5h-5h-5h-5h-5h-5v-5h-5v-5h-5v-5v-5h5v5h5v5h5v5h5h5h5v-5h5v-5h5v-5h5v5v5H67.5z" />
	</g>
	<g class="st0">
		<path class="st1"
			d="M77.5,37.5v-5v-5h-5v-5h-5h-5v-5h-5h-5h-5h-5h-5v5h-5h-5v5h-5v5v5h-5v5v5v5v5v5h5v5v5h5v5h5h5   v5h5h5h5h5h5v-5h5h5v-5h5v-5v-5h5v-5v-5v-5v-5v-5H77.5z M67.5,62.5v5h-5v-5h-5v-5h-5h-5h-5v5h-5v5h-5v-5v-5h5v-5h5h5h5h5h5v5h5   V62.5z M32.5,37.5h5h5v5v5h-5h-5v-5V37.5z M67.5,42.5v5h-5h-5v-5v-5h5h5V42.5z" />
	</g>
	<g class="st0">
		<polygon class="st1"
			points="47.5,47.5 47.5,42.5 52.5,42.5 52.5,37.5 57.5,37.5 57.5,32.5 62.5,32.5 67.5,32.5    72.5,32.5 77.5,32.5 77.5,27.5 72.5,27.5 72.5,22.5 67.5,22.5 62.5,22.5 62.5,17.5 57.5,17.5 52.5,17.5 47.5,17.5 42.5,17.5    37.5,17.5 37.5,22.5 32.5,22.5 27.5,22.5 27.5,27.5 22.5,27.5 22.5,32.5 22.5,37.5 17.5,37.5 17.5,42.5 17.5,47.5 17.5,52.5    17.5,57.5 17.5,62.5 22.5,62.5 22.5,67.5 22.5,72.5 27.5,72.5 27.5,77.5 32.5,77.5 37.5,77.5 37.5,82.5 42.5,82.5 47.5,82.5    52.5,82.5 57.5,82.5 62.5,82.5 62.5,77.5 67.5,77.5 72.5,77.5 72.5,72.5 77.5,72.5 77.5,67.5 72.5,67.5 67.5,67.5 62.5,67.5    57.5,67.5 57.5,62.5 52.5,62.5 52.5,57.5 47.5,57.5 47.5,52.5  " />
	</g>
	<g class="st0">
		<g class="st1">
			<polygon
				points="52.5,77.5 47.5,77.5 42.5,77.5 42.5,72.5 37.5,72.5 37.5,67.5 32.5,67.5 32.5,62.5 32.5,57.5     32.5,52.5 37.5,52.5 37.5,47.5 42.5,47.5 42.5,42.5 47.5,42.5 52.5,42.5 52.5,37.5 57.5,37.5 57.5,32.5 62.5,32.5 62.5,27.5     67.5,27.5 67.5,22.5 62.5,22.5 62.5,17.5 57.5,17.5 52.5,17.5 47.5,17.5 42.5,17.5 37.5,17.5 37.5,22.5 32.5,22.5 27.5,22.5     27.5,27.5 22.5,27.5 22.5,32.5 22.5,37.5 17.5,37.5 17.5,42.5 17.5,47.5 17.5,52.5 17.5,57.5 17.5,62.5 22.5,62.5 22.5,67.5     22.5,72.5 27.5,72.5 27.5,77.5 32.5,77.5 37.5,77.5 37.5,82.5 42.5,82.5 47.5,82.5 52.5,82.5 57.5,82.5 62.5,82.5 62.5,77.5     57.5,77.5   " />
			<polygon
				points="77.5,37.5 77.5,32.5 77.5,27.5 72.5,27.5 67.5,27.5 67.5,32.5 62.5,32.5 62.5,37.5 57.5,37.5     57.5,42.5 52.5,42.5 52.5,47.5 47.5,47.5 42.5,47.5 42.5,52.5 37.5,52.5 37.5,57.5 37.5,62.5 37.5,67.5 42.5,67.5 42.5,72.5     47.5,72.5 52.5,72.5 57.5,72.5 62.5,72.5 62.5,77.5 67.5,77.5 72.5,77.5 72.5,72.5 77.5,72.5 77.5,67.5 77.5,62.5 82.5,62.5     82.5,57.5 82.5,52.5 82.5,47.5 82.5,42.5 82.5,37.5   " />
		</g>
	</g>
	<g class="st0">
		<g class="st1">
			<polygon
				points="47.5,22.5 52.5,22.5 57.5,22.5 62.5,22.5 62.5,17.5 57.5,17.5 52.5,17.5 47.5,17.5 42.5,17.5     37.5,17.5 37.5,22.5 42.5,22.5   " />
			<polygon
				points="52.5,77.5 47.5,77.5 42.5,77.5 37.5,77.5 37.5,82.5 42.5,82.5 47.5,82.5 52.5,82.5 57.5,82.5     62.5,82.5 62.5,77.5 57.5,77.5   " />
			<polygon points="67.5,27.5 72.5,27.5 72.5,22.5 67.5,22.5 62.5,22.5 62.5,27.5   " />
			<polygon points="37.5,27.5 37.5,22.5 32.5,22.5 27.5,22.5 27.5,27.5 32.5,27.5   " />
			<polygon points="62.5,72.5 62.5,77.5 67.5,77.5 72.5,77.5 72.5,72.5 67.5,72.5   " />
			<polygon points="32.5,72.5 27.5,72.5 27.5,77.5 32.5,77.5 37.5,77.5 37.5,72.5   " />
			<polygon points="72.5,37.5 77.5,37.5 77.5,32.5 77.5,27.5 72.5,27.5 72.5,32.5   " />
			<polygon points="27.5,32.5 27.5,27.5 22.5,27.5 22.5,32.5 22.5,37.5 27.5,37.5   " />
			<polygon points="72.5,67.5 72.5,72.5 77.5,72.5 77.5,67.5 77.5,62.5 72.5,62.5   " />
			<polygon points="27.5,62.5 22.5,62.5 22.5,67.5 22.5,72.5 27.5,72.5 27.5,67.5   " />
			<rect x="47.5" y="67.5" width="5" height="5" />
			<polygon
				points="77.5,37.5 77.5,42.5 77.5,47.5 77.5,52.5 77.5,57.5 77.5,62.5 82.5,62.5 82.5,57.5 82.5,52.5     82.5,47.5 82.5,42.5 82.5,37.5   " />
			<polygon
				points="52.5,42.5 52.5,37.5 52.5,32.5 52.5,27.5 47.5,27.5 47.5,32.5 47.5,37.5 47.5,42.5 47.5,47.5     47.5,52.5 52.5,52.5 57.5,52.5 57.5,47.5 52.5,47.5   " />
			<rect x="57.5" y="42.5" width="5" height="5" />
			<rect x="67.5" y="47.5" width="5" height="5" />
			<rect x="27.5" y="47.5" width="5" height="5" />
			<polygon
				points="22.5,52.5 22.5,47.5 22.5,42.5 22.5,37.5 17.5,37.5 17.5,42.5 17.5,47.5 17.5,52.5 17.5,57.5     17.5,62.5 22.5,62.5 22.5,57.5   " />
		</g>
	</g>
	<g class="st0">
		<g class="st1">
			<polygon
				points="75,52.5 75,47.5 75,42.5 80,42.5 85,42.5 85,37.5 80,37.5 75,37.5 75,32.5 70,32.5 65,32.5     60,32.5 55,32.5 50,32.5 45,32.5 40,32.5 35,32.5 30,32.5 25,32.5 20,32.5 15,32.5 15,37.5 15,42.5 15,47.5 15,52.5 15,57.5     15,62.5 15,67.5 20,67.5 20,72.5 25,72.5 25,77.5 30,77.5 35,77.5 35,82.5 40,82.5 45,82.5 50,82.5 55,82.5 55,77.5 60,77.5     65,77.5 65,72.5 70,72.5 70,67.5 75,67.5 75,62.5 75,57.5 80,57.5 85,57.5 85,52.5 80,52.5   " />
			<polygon points="85,42.5 85,47.5 85,52.5 90,52.5 90,47.5 90,42.5   " />
		</g>
	</g>
	<g class="st0">
		<g class="st1">
			<polygon
				points="62.5,40 57.5,40 57.5,35 52.5,35 52.5,30 52.5,25 52.5,20 52.5,15 47.5,15 47.5,20 42.5,20     42.5,25 37.5,25 37.5,30 37.5,35 37.5,40 37.5,45 32.5,45 27.5,45 22.5,45 17.5,45 17.5,50 12.5,50 12.5,55 12.5,60 12.5,65     12.5,70 12.5,75 17.5,75 17.5,80 22.5,80 22.5,85 27.5,85 32.5,85 37.5,85 42.5,85 47.5,85 52.5,85 57.5,85 57.5,80 62.5,80     62.5,75 67.5,75 67.5,70 67.5,65 67.5,60 67.5,55 67.5,50 67.5,45 62.5,45   " />
			<path d="M82.5,45h-5h-5v5v5v5v5v5v5h5h5h5v-5v-5v-5v-5v-5v-5H82.5z M82.5,70h-5v-5h5V70z" />
		</g>
	</g>
	<g class="st0">
		<polygon class="st1"
			points="87.5,47.5 87.5,42.5 82.5,42.5 82.5,37.5 77.5,37.5 77.5,32.5 72.5,32.5 72.5,27.5    67.5,27.5 67.5,22.5 62.5,22.5 62.5,17.5 57.5,17.5 57.5,22.5 57.5,27.5 57.5,32.5 57.5,37.5 52.5,37.5 47.5,37.5 42.5,37.5    37.5,37.5 32.5,37.5 27.5,37.5 22.5,37.5 17.5,37.5 12.5,37.5 7.5,37.5 7.5,42.5 7.5,47.5 7.5,52.5 7.5,57.5 7.5,62.5 12.5,62.5    17.5,62.5 22.5,62.5 27.5,62.5 32.5,62.5 37.5,62.5 42.5,62.5 47.5,62.5 52.5,62.5 57.5,62.5 57.5,67.5 57.5,72.5 57.5,77.5    57.5,82.5 62.5,82.5 62.5,77.5 67.5,77.5 67.5,72.5 72.5,72.5 72.5,67.5 77.5,67.5 77.5,62.5 82.5,62.5 82.5,57.5 87.5,57.5    87.5,52.5 92.5,52.5 92.5,47.5  " />
	</g>
	<g>
		<polygon
			points="77.5,47.5 77.5,42.5 72.5,42.5 72.5,37.5 67.5,37.5 67.5,32.5 62.5,32.5 62.5,27.5 57.5,27.5    57.5,22.5 52.5,22.5 52.5,17.5 47.5,17.5 47.5,22.5 42.5,22.5 42.5,27.5 37.5,27.5 37.5,32.5 32.5,32.5 32.5,37.5 27.5,37.5    27.5,42.5 22.5,42.5 22.5,47.5 17.5,47.5 17.5,52.5 17.5,57.5 17.5,62.5 17.5,67.5 17.5,72.5 17.5,77.5 17.5,82.5 22.5,82.5    27.5,82.5 32.5,82.5 37.5,82.5 42.5,82.5 42.5,77.5 42.5,72.5 42.5,67.5 42.5,62.5 42.5,57.5 47.5,57.5 52.5,57.5 57.5,57.5    57.5,62.5 57.5,67.5 57.5,72.5 57.5,77.5 57.5,82.5 62.5,82.5 67.5,82.5 72.5,82.5 77.5,82.5 82.5,82.5 82.5,77.5 82.5,72.5    82.5,67.5 82.5,62.5 82.5,57.5 82.5,52.5 82.5,47.5  " />
	</g>
	<g class="st0">
		<path class="st1"
			d="M67.5,7.5h-5h-5h-5h-5h-5h-5h-5h-5v5v5v5v5v5v5v5v5v5v5v5v5v5v5v5v5v5h5h5h5h5h5h5h5h5h5v-5   v-5v-5v-5v-5v-5v-5v-5v-5v-5v-5v-5v-5v-5v-5v-5v-5H67.5z M52.5,87.5h-5H45v-5v-5h2.5h5H55v5v5H52.5z M67.5,22.5v5v5v5v5v5v5v5v5v5   v5h-5h-5h-5h-5h-5h-5h-5v-5v-5v-5v-5v-5v-5v-5v-5v-5v-5v-5h5h5h5h5h5h5h5V22.5z" />
	</g>
	<g class="st0">
		<path class="st1"
			d="M72.7,67.8v-5h-5v-5h-5v-5h-5v-5h5v-5v-5h-5v-5v-5h-5h-5v-5h-5h-5v5h-5h-5v5v5h-5v5v5h5v5v5h5   h5v5h5h5v-5h5v5h5v5h5v5h5v5h5h5v-5v-5H72.7z M32.7,32.8h5v5h-5V32.8z" />
	</g>
	<g class="st0">
		<g class="st1">
			<polygon points="47.5,27.5 52.5,27.5 52.5,22.5 47.5,22.5 42.5,22.5 37.5,22.5 37.5,27.5 42.5,27.5   " />
			<polygon points="42.5,62.5 37.5,62.5 37.5,67.5 42.5,67.5 47.5,67.5 52.5,67.5 52.5,62.5 47.5,62.5   " />
			<polygon points="57.5,32.5 57.5,37.5 62.5,37.5 62.5,32.5 62.5,27.5 57.5,27.5 52.5,27.5 52.5,32.5   " />
			<polygon points="32.5,57.5 32.5,52.5 27.5,52.5 27.5,57.5 27.5,62.5 32.5,62.5 37.5,62.5 37.5,57.5   " />
			<polygon points="32.5,32.5 37.5,32.5 37.5,27.5 32.5,27.5 27.5,27.5 27.5,32.5 27.5,37.5 32.5,37.5   " />
			<polygon points="27.5,42.5 27.5,37.5 22.5,37.5 22.5,42.5 22.5,47.5 22.5,52.5 27.5,52.5 27.5,47.5   " />
			<polygon points="62.5,47.5 62.5,52.5 67.5,52.5 67.5,47.5 67.5,42.5 67.5,37.5 62.5,37.5 62.5,42.5   " />
			<polygon
				points="72.5,67.5 72.5,62.5 67.5,62.5 67.5,57.5 62.5,57.5 62.5,52.5 57.5,52.5 57.5,57.5 52.5,57.5     52.5,62.5 57.5,62.5 57.5,67.5 62.5,67.5 62.5,72.5 67.5,72.5 67.5,77.5 72.5,77.5 77.5,77.5 77.5,72.5 77.5,67.5   " />
		</g>
	</g>
	<g class="st0">
		<polygon class="st1"
			points="87.5,32.5 82.5,32.5 77.5,32.5 72.5,32.5 67.5,32.5 62.5,32.5 57.5,32.5 52.5,32.5    52.5,37.5 52.5,42.5 52.5,47.5 52.5,52.5 47.5,52.5 47.5,47.5 42.5,47.5 42.5,42.5 37.5,42.5 32.5,42.5 32.5,37.5 27.5,37.5    22.5,37.5 17.5,37.5 12.5,37.5 7.5,37.5 7.5,42.5 12.5,42.5 17.5,42.5 22.5,42.5 27.5,42.5 27.5,47.5 32.5,47.5 32.5,52.5    37.5,52.5 37.5,57.5 42.5,57.5 42.5,62.5 47.5,62.5 52.5,62.5 52.5,67.5 57.5,67.5 62.5,67.5 67.5,67.5 72.5,67.5 77.5,67.5    77.5,62.5 82.5,62.5 82.5,57.5 87.5,57.5 87.5,52.5 87.5,47.5 92.5,47.5 92.5,42.5 92.5,37.5 92.5,32.5  " />
	</g>
	<g class="st0">
		<path class="st1"
			d="M77.5,37.5v-5v-5h-5v-5h-5v5h-5v5v5h-5h-5h-5h-5h-5v-5v-5h-5v-5h-5v5h-5v5v5h-5v5v5v5v5v5h5v5   v5h5h5v5h5h5h5h5h5h5h5v-5h5h5v-5v-5h5v-5v-5v-5v-5v-5H77.5z M62.5,67.5h-5h-5h-5h-5h-5v-5v-5h5v5h5v-5h5v5h5v-5h5v5V67.5z    M67.5,52.5h-5v-5h5V52.5z M37.5,52.5h-5v-5h5V52.5z" />
	</g>
	<g class="st0">
		<g class="st1">
			<polygon
				points="82.5,40 82.5,35 77.5,35 72.5,35 72.5,40 67.5,40 67.5,45 67.5,50 72.5,50 72.5,55 77.5,55     82.5,55 82.5,50 87.5,50 87.5,45 87.5,40   " />
			<polygon
				points="32.5,40 27.5,40 27.5,35 22.5,35 17.5,35 17.5,40 12.5,40 12.5,45 12.5,50 17.5,50 17.5,55     22.5,55 27.5,55 27.5,50 32.5,50 32.5,45   " />
			<polygon
				points="32.5,40 37.5,40 42.5,40 42.5,35 47.5,35 47.5,30 47.5,25 42.5,25 42.5,20 37.5,20 32.5,20     32.5,25 27.5,25 27.5,30 27.5,35 32.5,35   " />
			<polygon
				points="72.5,35 72.5,30 72.5,25 67.5,25 67.5,20 62.5,20 57.5,20 57.5,25 52.5,25 52.5,30 52.5,35     57.5,35 57.5,40 62.5,40 67.5,40 67.5,35   " />
			<polygon
				points="62.5,45 57.5,45 52.5,45 47.5,45 42.5,45 37.5,45 37.5,50 32.5,50 32.5,55 32.5,60 27.5,60     27.5,65 27.5,70 27.5,75 32.5,75 32.5,80 37.5,80 42.5,80 47.5,80 47.5,75 52.5,75 52.5,80 57.5,80 62.5,80 67.5,80 67.5,75     72.5,75 72.5,70 72.5,65 72.5,60 67.5,60 67.5,55 67.5,50 62.5,50   " />
		</g>
	</g>
	<g class="st0">
		<g class="st1">
			<rect x="37.6" y="55" width="5" height="5" />
			<polygon
				points="27.6,60 22.6,60 22.6,65 17.6,65 17.6,70 17.6,75 17.6,80 22.6,80 22.6,85 27.6,85 32.6,85     37.6,85 37.6,80 42.6,80 42.6,75 42.6,70 42.6,65 37.6,65 37.6,60 32.6,60   " />
			<polygon
				points="77.6,65 77.6,60 72.6,60 72.6,55 72.6,50 67.6,50 67.6,55 67.6,60 62.6,60 62.6,65 57.6,65     57.6,70 57.6,75 57.6,80 62.6,80 62.6,85 67.6,85 72.6,85 77.6,85 77.6,80 82.6,80 82.6,75 82.6,70 82.6,65   " />
			<polygon points="62.6,25 57.6,25 57.6,30 57.6,35 62.6,35 62.6,30   " />
			<polygon points="42.6,50 42.6,55 47.6,55 47.6,50 47.6,45 42.6,45   " />
			<polygon points="67.6,40 67.6,35 62.6,35 62.6,40 62.6,45 62.6,50 67.6,50 67.6,45   " />
			<rect x="47.6" y="40" width="5" height="5" />
			<rect x="52.6" y="35" width="5" height="5" />
			<polygon points="67.6,20 72.6,20 72.6,15 67.6,15 62.6,15 62.6,20 62.6,25 67.6,25   " />
		</g>
	</g>
	<g class="st0">
		<polygon class="st1"
			points="70,7.5 65,7.5 60,7.5 55,7.5 50,7.5 45,7.5 45,12.5 40,12.5 40,17.5 35,17.5 35,22.5    30,22.5 30,27.5 30,32.5 25,32.5 25,37.5 25,42.5 25,47.5 25,52.5 25,57.5 25,62.5 25,67.5 30,67.5 30,72.5 30,77.5 35,77.5    35,82.5 40,82.5 40,87.5 45,87.5 45,92.5 50,92.5 55,92.5 60,92.5 65,92.5 70,92.5 75,92.5 75,87.5 75,82.5 75,77.5 75,72.5    75,67.5 75,62.5 70,62.5 65,62.5 60,62.5 60,67.5 55,67.5 55,72.5 55,77.5 50,77.5 50,72.5 45,72.5 40,72.5 40,67.5 40,62.5    40,57.5 40,52.5 40,47.5 40,42.5 40,37.5 40,32.5 40,27.5 45,27.5 50,27.5 50,22.5 55,22.5 55,27.5 55,32.5 60,32.5 60,37.5    65,37.5 70,37.5 75,37.5 75,32.5 75,27.5 75,22.5 75,17.5 75,12.5 75,7.5  " />
	</g>
</svg>