<svg xmlns="http://www.w3.org/2000/svg" xmlns:xlink="http://www.w3.org/1999/xlink" xml:space="preserve" version="1.1"
  style="shape-rendering:geometricPrecision;text-rendering:geometricPrecision;image-rendering:optimizeQuality;"
  viewBox="0 0 226 421.25" x="0px" y="0px" fill-rule="evenodd" clip-rule="evenodd">
  <defs>
    <style type="text/css">
      .fil0 {
        fill: black
      }

      .fil1 {
        fill: black;
        fill-rule: nonzero
      }
    </style>
  </defs>
  <g>
    <circle class="fil0" cx="113" cy="296" r="41" />
    <path class="fil1"
      d="M0 95l4 -13c13,-50 57,-82 108,-82 61,0 114,48 114,110 0,50 -34,92 -81,105l0 22 -65 0 0 -39c0,-22 16,-41 38,-43 24,-3 44,-21 44,-45 0,-27 -24,-45 -50,-45 -22,0 -40,12 -46,34l-4 13 -62 -17z" />
  </g>
</svg>